<?xml version="1.0"?>
<svg width="640" height="480" xmlns="http://www.w3.org/2000/svg" xmlns:svg="http://www.w3.org/2000/svg">
 <!-- Created with SVG-edit - https://github.com/SVG-Edit/svgedit-->
 <defs>
  <filter height="200%" id="svg_8_blur" width="200%" x="-50%" y="-50%">
   <feGaussianBlur in="SourceGraphic" stdDeviation="10"/>
  </filter>
  <filter id="svg_14_blur">
   <feGaussianBlur in="SourceGraphic" stdDeviation="1.1"/>
  </filter>
  <filter id="svg_15_blur">
   <feGaussianBlur in="SourceGraphic" stdDeviation="0.9"/>
  </filter>
 </defs>
 <g class="layer">
  <title>Layer 1</title>
  <rect fill="#FF0000" height="275" id="svg_1" stroke="#000000" stroke-width="5" width="342" x="126.5" y="74.5"/>
  <path d="m269.981087,424.514015c9.339214,-9.752353 17.2652,-21.367909 20.61299,-34.55604c-10.011493,7.611429 -19.193531,19.853954 -33.15905,19.390145c-10.5431,0.605111 -23.102327,0.615354 -30.523818,-8.202483c-16.584909,-13.336604 -21.040081,-39.99215 -7.421286,-56.96483c9.319625,-12.254944 25.593736,-17.45138 40.528666,-15.61328c9.410184,-3.992834 -1.840529,-14.103058 -2.971963,-20.412895c-7.00369,-22.888189 9.495797,-50.342148 33.756985,-52.978814c17.401501,-2.498245 34.412908,8.766766 42.927723,23.386348c4.627208,10.229588 2.216264,21.839445 1.136694,32.451939c-3.635408,5.33317 -12.946132,18.2355 0.340593,17.219228c13.136756,-0.207902 27.009338,3.648785 35.67184,14.09538c12.670469,14.069461 13.832704,37.319359 1.084911,51.695756c-6.743184,8.756572 -16.861963,15.764973 -28.314582,15.374786c-11.209439,1.131625 -23.34759,-1.3002 -31.29636,-9.841292c-3.390158,-2.375598 -11.697195,-11.351119 -11.694327,-9.382763c8.303099,17.297968 17.692086,35.261712 34.302062,45.980792c5.934603,4.771818 -9.03932,1.491134 -12.664244,2.463709c-21.962871,0.01941 -43.925648,0.039203 -65.888519,0.058706c4.523866,-4.721525 9.048017,-9.442846 13.571685,-14.164378l0,-0.000012z" fill="#000000" filter="url(#svg_8_blur)" id="svg_8" stroke="#000000" stroke-width="5"/>
  <text fill="#000000" font-family="serif" font-size="24" id="svg_10" stroke="#000000" stroke-dasharray="null" stroke-linecap="null" stroke-linejoin="null" stroke-width="0" text-anchor="middle" x="130.5" xml:space="preserve" y="48.5"/>
  <text fill="#000000" filter="url(#svg_14_blur)" font-family="Cursive" font-size="216" id="svg_14" stroke="#000000" stroke-dasharray="null" stroke-linecap="null" stroke-linejoin="null" stroke-width="0" text-anchor="middle" transform="rotate(-10 212.492 148)" x="212.5" xml:space="preserve" y="235.5">R</text>
  <text fill="#000000" filter="url(#svg_15_blur)" font-family="Cursive" font-size="216" id="svg_15" stroke="#000000" stroke-dasharray="null" stroke-linecap="null" stroke-linejoin="null" stroke-width="0" text-anchor="middle" transform="rotate(-10 382.484 174)" x="382.5" xml:space="preserve" y="261.5">D</text>
 </g>
</svg>